<?xml version="1.0" encoding="UTF-8"?>
<svg xmlns="http://www.w3.org/2000/svg" version="1.1" viewBox="0 0 128 128">
  <defs>
    <style>
      .cls-1 {
        fill: #010101;
      }
    </style>
  </defs>
  <!-- Generator: Adobe Illustrator 28.6.0, SVG Export Plug-In . SVG Version: 1.2.0 Build 709)  -->
  <g>
    <g id="Ebene_1">
      <path class="cls-1" d="M100.3,64.7h0c15.1-3.7,20.6-12.9,20.6-24,0-17.3-15.4-27.7-31.6-27.9-11.9-.1-24.3,5.3-31.3,17.6l12.8,8.1c3.7-8,11.4-11.9,19.2-11.9s16.2,4.7,16.2,14.1-11.1,15.4-24.9,15.4v17.3c13.8,0,24.9,4,24.9,15.4s-7.7,14.1-16.2,14.1-15.5-4-19.2-11.9l-12.8,8.1c7,12.4,19.3,17.8,31.3,17.6,16.2-.1,31.6-10.5,31.6-27.9s-5.5-20.3-20.6-24Z"/>
      <path class="cls-1" d="M34.1,99.7L4.1,65.3l31.2-35.6,10.9,9.2-23.1,26.4,21.9,25.2-10.9,9.2Z"/>
    </g>
  </g>
</svg>